<?xml version="1.0" encoding="UTF-8"?>
<svg width="1752px" height="1752px" viewBox="0 0 1752 1752" xmlns="http://www.w3.org/2000/svg" xmlns:xlink="http://www.w3.org/1999/xlink" version="1.1">
 <!-- Generated by Pixelmator Pro 2.1.5 -->
 <g id="New-Group-copy">
  <path id="Path" d="M1057.544 921.857 L1060.927 923.089 1183.37 586.679 1179.987 585.447 Z" fill="#50acfc" fill-opacity="1" stroke="none"/>
  <path id="Rectangle" d="M696.224 812.695 L699.607 813.927 828.507 459.779 825.124 458.547 Z" fill="#6271cd" fill-opacity="1" stroke="none"/>
  <defs>
   <linearGradient id="linear-gradient" gradientUnits="userSpaceOnUse" x1="417.925" y1="308.586" x2="1237.085" y2="606.736">
    <stop offset="0.606" stop-color="#6271cd" stop-opacity="1"/>
    <stop offset="0.897" stop-color="#4ea7f7" stop-opacity="1"/>
   </linearGradient>
  </defs>
  <path id="Rectangle-1" d="M471.03 329.968 L1182.661 588.98 1183.892 585.597 472.261 326.585 Z" fill-opacity="1" fill="url(#linear-gradient)" stroke="none"/>
  <path id="Path-1" d="M342.272 683.727 L699.639 813.797 700.87 810.415 343.503 680.344 Z" fill="#6271cd" fill-opacity="1" stroke="none"/>
  <path id="Rectangle-2" d="M566.989 1166.853 L570.372 1168.084 691.447 835.433 688.064 834.201 Z" fill="#50acfc" fill-opacity="1" stroke="none"/>
  <path id="Path-2" d="M566.877 1166.861 L1260.37 1419.272 1261.602 1415.889 568.108 1163.479 Z" fill="#50acfc" fill-opacity="1" stroke="none"/>
  <path id="Path-3" d="M929.659 1273.22 L933.042 1274.451 1053.745 942.822 1050.362 941.591 Z" fill="#bf55d4" fill-opacity="1" stroke="none"/>
  <path id="Rectangle-3" d="M1282.693 1406.064 L1286.075 1407.295 1409.545 1068.066 1406.162 1066.835 Z" fill="#bf55d4" fill-opacity="1" stroke="none"/>
  <defs>
   <linearGradient id="linear-gradient-1" gradientUnits="userSpaceOnUse" x1="666.829" y1="799.803" x2="1460.948" y2="1088.838">
    <stop offset="0.1" stop-color="#4da8f7" stop-opacity="1"/>
    <stop offset="0.398" stop-color="#bf55d4" stop-opacity="1"/>
   </linearGradient>
  </defs>
  <path id="Path-4" d="M718.29 820.586 L1408.167 1071.681 1409.398 1068.298 719.522 817.203 Z" fill-opacity="1" fill="url(#linear-gradient-1)" stroke="none"/>
  <path id="Path-5" d="M342.227 683.851 L345.61 685.082 474.586 330.723 471.203 329.492 Z" fill="#6271cd" fill-opacity="1" stroke="none"/>
 </g>
</svg>
