<?xml version="1.0" encoding="UTF-8"?>
<svg width="1752px" height="1752px" viewBox="0 0 1752 1752" xmlns="http://www.w3.org/2000/svg" xmlns:xlink="http://www.w3.org/1999/xlink" version="1.1">
 <!-- Generated by Pixelmator Pro 2.1.5 -->
 <g id="New-Group">
  <path id="Path-copy-6" d="M1057.601 916.031 L1064.93 918.698 1186.745 584.014 1179.416 581.347 Z" fill="#50acfc" fill-opacity="1" stroke="none"/>
  <path id="Path-copy-5" d="M693.943 813.293 L701.272 815.961 832.608 455.119 825.278 452.451 Z" fill="#6271cd" fill-opacity="1" stroke="none"/>
  <defs>
   <linearGradient id="linear-gradient" gradientUnits="userSpaceOnUse" x1="415.05" y1="306.785" x2="1239.618" y2="606.904">
    <stop offset="0.606" stop-color="#6271cd" stop-opacity="1"/>
    <stop offset="0.897" stop-color="#4da8f7" stop-opacity="1"/>
   </linearGradient>
  </defs>
  <path id="Rectangle-copy-2" d="M467.74 330.411 L1184.069 591.134 1186.737 583.804 470.408 323.082 Z" fill-opacity="1" fill="url(#linear-gradient)" stroke="none"/>
  <path id="Path-copy-4" d="M338.982 684.17 L701.047 815.951 703.715 808.622 341.65 676.841 Z" fill="#6271cd" fill-opacity="1" stroke="none"/>
  <path id="Rectangle-copy-1" d="M564.707 1167.45 L572.037 1170.118 694.031 834.942 686.702 832.274 Z" fill="#50acfc" fill-opacity="1" stroke="none"/>
  <path id="Path-copy-3" d="M564.527 1167.647 L1254.44 1418.755 1257.108 1411.425 567.195 1160.317 Z" fill="#50acfc" fill-opacity="1" stroke="none"/>
  <path id="Path-copy-2" d="M928.745 1270.059 L936.075 1272.727 1056.094 942.977 1048.764 940.309 Z" fill="#bf55d4" fill-opacity="1" stroke="none"/>
  <path id="Rectangle-copy" d="M1273.228 1426.395 L1280.558 1429.063 1412.236 1067.281 1404.906 1064.613 Z" fill="#bf55d4" fill-opacity="1" stroke="none"/>
  <defs>
   <linearGradient id="linear-gradient-1" gradientUnits="userSpaceOnUse" x1="669.008" y1="799.841" x2="1463.126" y2="1088.877">
    <stop offset="0.1" stop-color="#50acfc" stop-opacity="1"/>
    <stop offset="0.398" stop-color="#bf55d4" stop-opacity="1"/>
   </linearGradient>
  </defs>
  <path id="Path-copy-1" d="M719.699 822.74 L1409.576 1073.834 1412.243 1066.505 722.367 815.41 Z" fill-opacity="1" fill="url(#linear-gradient-1)" stroke="none"/>
  <path id="Path-copy" d="M339.005 684.106 L346.335 686.774 477.705 325.838 470.376 323.17 Z" fill="#6271cd" fill-opacity="1" stroke="none"/>
 </g>
</svg>
