<?xml version="1.0" encoding="UTF-8"?>
<svg width="1752px" height="1752px" viewBox="0 0 1752 1752" xmlns="http://www.w3.org/2000/svg" xmlns:xlink="http://www.w3.org/1999/xlink" version="1.1">
 <!-- Generated by Pixelmator Pro 2.1.5 -->
 <g id="New-Group">
  <path id="Path" d="M1054.27 910.562 L1069.493 916.103 1191.308 581.418 1176.085 575.878 Z" fill="#50acfc" fill-opacity="1" stroke="none"/>
  <path id="Rectangle" d="M687.876 815.342 L703.099 820.882 832.383 465.679 817.16 460.138 Z" fill="#6271cd" fill-opacity="1" stroke="none"/>
  <defs>
   <linearGradient id="linear-gradient" gradientUnits="userSpaceOnUse" x1="410.829" y1="305.141" x2="1242.969" y2="608.015">
    <stop offset="0.606" stop-color="#6271cd" stop-opacity="1"/>
    <stop offset="0.897" stop-color="#4da8f7" stop-opacity="1"/>
   </linearGradient>
  </defs>
  <path id="Rectangle-1" d="M462.476 333.178 L1185.383 596.295 1190.924 581.072 468.017 317.955 Z" fill-opacity="1" fill="url(#linear-gradient)" stroke="none"/>
  <path id="Path-1" d="M334.002 687.04 L702.361 821.112 707.902 805.889 339.543 671.817 Z" fill="#6271cd" fill-opacity="1" stroke="none"/>
  <path id="Rectangle-2" d="M558.641 1169.499 L573.864 1175.04 695.858 839.863 680.635 834.323 Z" fill="#50acfc" fill-opacity="1" stroke="none"/>
  <path id="Path-2" d="M559.263 1170.414 L1248.237 1421.179 1253.777 1405.956 564.804 1155.191 Z" fill="#50acfc" fill-opacity="1" stroke="none"/>
  <path id="Path-3" d="M925.415 1264.59 L940.638 1270.131 1059.973 942.26 1044.75 936.72 Z" fill="#bf55d4" fill-opacity="1" stroke="none"/>
  <path id="Rectangle-3" d="M1267.162 1428.444 L1282.385 1433.984 1416.799 1064.685 1401.576 1059.145 Z" fill="#bf55d4" fill-opacity="1" stroke="none"/>
  <defs>
   <linearGradient id="linear-gradient-1" gradientUnits="userSpaceOnUse" x1="672.872" y1="801.14" x2="1465.909" y2="1089.782">
    <stop offset="0.1" stop-color="#50acfc" stop-opacity="1"/>
    <stop offset="0.398" stop-color="#bf54d5" stop-opacity="1"/>
   </linearGradient>
  </defs>
  <path id="Path-4" d="M721.953 828.243 L1410.89 1078.995 1416.43 1063.772 727.494 813.02 Z" fill-opacity="1" fill="url(#linear-gradient-1)" stroke="none"/>
  <path id="Path-5" d="M333.878 686.497 L349.102 692.038 478.42 336.74 463.197 331.199 Z" fill="#6271cd" fill-opacity="1" stroke="none"/>
 </g>
</svg>
