<?xml version="1.0" encoding="UTF-8"?>
<svg width="1752px" height="1752px" viewBox="0 0 1752 1752" xmlns="http://www.w3.org/2000/svg" xmlns:xlink="http://www.w3.org/1999/xlink" version="1.1">
 <!-- Generated by Pixelmator Pro 2.1.5 -->
 <g id="New-Group">
  <path id="Path" d="M1053.694 894.602 L1080.757 904.452 1199.563 578.038 1172.499 568.187 Z" fill="#50acfc" fill-opacity="1" stroke="none"/>
  <path id="Rectangle" d="M686.062 802.783 L713.125 812.633 835.806 475.57 808.743 465.719 Z" fill="#6271cd" fill-opacity="1" stroke="none"/>
  <defs>
   <linearGradient id="linear-gradient" gradientUnits="userSpaceOnUse" x1="404.32" y1="302.61" x2="1250.522" y2="610.602">
    <stop offset="0.606" stop-color="#6271cd" stop-opacity="1"/>
    <stop offset="0.897" stop-color="#4da8f7" stop-opacity="1"/>
   </linearGradient>
  </defs>
  <path id="Rectangle-1" d="M454.581 337.328 L1189.704 604.891 1199.554 577.828 464.431 310.265 Z" fill-opacity="1" fill="url(#linear-gradient)" stroke="none"/>
  <path id="Path-1" d="M325.823 691.087 L706.682 829.708 716.532 802.645 335.673 664.023 Z" fill="#6271cd" fill-opacity="1" stroke="none"/>
  <path id="Rectangle-2" d="M550.609 1174.025 L577.672 1183.875 696.626 857.05 669.563 847.2 Z" fill="#50acfc" fill-opacity="1" stroke="none"/>
  <path id="Path-2" d="M557.194 1176.684 L1232.072 1422.319 1241.922 1395.256 567.044 1149.621 Z" fill="#50acfc" fill-opacity="1" stroke="none"/>
  <path id="Path-3" d="M924.846 1248.609 L951.909 1258.46 1067.201 941.699 1040.138 931.848 Z" fill="#bf55d4" fill-opacity="1" stroke="none"/>
  <path id="Rectangle-3" d="M1259.472 1432.03 L1286.535 1441.88 1417.87 1081.038 1390.807 1071.188 Z" fill="#bf55d4" fill-opacity="1" stroke="none"/>
  <defs>
   <linearGradient id="linear-gradient-1" gradientUnits="userSpaceOnUse" x1="687.336" y1="806.242" x2="1471.989" y2="1091.832">
    <stop offset="0.1" stop-color="#4da8f7" stop-opacity="1"/>
    <stop offset="0.398" stop-color="#bf55d4" stop-opacity="1"/>
   </linearGradient>
  </defs>
  <path id="Path-4" d="M733.557 839.49 L1415.21 1087.591 1425.06 1060.528 743.407 812.427 Z" fill-opacity="1" fill="url(#linear-gradient-1)" stroke="none"/>
  <path id="Path-5" d="M325.846 691.023 L352.909 700.873 481.885 346.514 454.822 336.664 Z" fill="#6271cd" fill-opacity="1" stroke="none"/>
 </g>
</svg>
