<?xml version="1.0" encoding="UTF-8"?>
<svg width="1752px" height="1752px" viewBox="0 0 1752 1752" xmlns="http://www.w3.org/2000/svg" xmlns:xlink="http://www.w3.org/1999/xlink" version="1.1">
 <!-- Generated by Pixelmator Pro 2.1.5 -->
 <g id="New-Group-copy">
  <path id="Path" d="M1055.862 865.078 L1099.89 881.103 1198.809 609.325 1154.781 593.3 Z" fill="#4da8f7" fill-opacity="1" stroke="none"/>
  <path id="Rectangle" d="M678.353 785.779 L722.38 801.804 845.062 464.74 801.034 448.715 Z" fill="#6271cd" fill-opacity="1" stroke="none"/>
  <defs>
   <linearGradient id="linear-gradient" gradientUnits="userSpaceOnUse" x1="392.091" y1="292.877" x2="1263.489" y2="610.04">
    <stop offset="0.606" stop-color="#6271cd" stop-opacity="1"/>
    <stop offset="0.897" stop-color="#4da8f7" stop-opacity="1"/>
   </linearGradient>
  </defs>
  <path id="Path-1" d="M440.697 337.288 L1197.708 612.818 1213.733 568.79 456.721 293.26 Z" fill-opacity="1" fill="url(#linear-gradient)" stroke="none"/>
  <path id="Path-2" d="M310.913 693.866 L708.75 838.667 724.775 794.639 326.938 649.838 Z" fill="#6271cd" fill-opacity="1" stroke="none"/>
  <path id="Rectangle-1" d="M545.119 1150.921 L589.147 1166.945 692.577 882.774 648.549 866.749 Z" fill="#50acfc" fill-opacity="1" stroke="none"/>
  <path id="Path-3" d="M533.808 1181.699 L1206.892 1426.682 1222.917 1382.654 549.833 1137.672 Z" fill="#50acfc" fill-opacity="1" stroke="none"/>
  <path id="Path-4" d="M925.631 1222.885 L969.659 1238.909 1077.392 942.916 1033.364 926.891 Z" fill="#bf55d4" fill-opacity="1" stroke="none"/>
  <path id="Rectangle-2" d="M1250.979 1443.491 L1295.007 1459.516 1429.076 1091.165 1385.048 1075.14 Z" fill="#bf55d4" fill-opacity="1" stroke="none"/>
  <defs>
   <linearGradient id="linear-gradient-1" gradientUnits="userSpaceOnUse" x1="710.304" y1="812.512" x2="1485.113" y2="1094.52">
    <stop offset="0.1" stop-color="#50acfc" stop-opacity="1"/>
    <stop offset="0.398" stop-color="#bf55d4" stop-opacity="1"/>
   </linearGradient>
  </defs>
  <path id="Path-5" d="M752.57 854.616 L1425.672 1099.605 1441.697 1055.577 768.595 810.588 Z" fill-opacity="1" fill="url(#linear-gradient-1)" stroke="none"/>
  <path id="Path-6" d="M314.024 685.319 L358.052 701.344 489.773 339.443 445.745 323.419 Z" fill="#6271cd" fill-opacity="1" stroke="none"/>
 </g>
</svg>
