<?xml version="1.0" encoding="UTF-8"?>
<svg width="1752px" height="1752px" viewBox="0 0 1752 1752" xmlns="http://www.w3.org/2000/svg" xmlns:xlink="http://www.w3.org/1999/xlink" version="1.1">
 <!-- Generated by Pixelmator Pro 2.1.5 -->
 <g id="New-Group">
  <path id="Path" d="M1049.321 815.98 L1136.148 847.583 1233.392 580.409 1146.564 548.806 Z" fill="#50acfc" fill-opacity="1" stroke="none"/>
  <path id="Rectangle" d="M667.876 762.11 L754.704 793.713 877.385 456.649 790.557 425.047 Z" fill="#6272cd" fill-opacity="1" stroke="none"/>
  <defs>
   <linearGradient id="linear-gradient" gradientUnits="userSpaceOnUse" x1="371.5" y1="288.021" x2="1286.864" y2="621.187">
    <stop offset="0.606" stop-color="#6272cd" stop-opacity="1"/>
    <stop offset="0.825" stop-color="#50acfc" stop-opacity="1"/>
   </linearGradient>
  </defs>
  <path id="Rectangle-1" d="M414.642 356.419 L1209.849 645.851 1241.452 559.023 446.245 269.592 Z" fill-opacity="1" fill="url(#linear-gradient)" stroke="none"/>
  <path id="Path-1" d="M285.885 710.178 L726.827 870.668 758.43 783.841 317.487 623.351 Z" fill="#6272cd" fill-opacity="1" stroke="none"/>
  <path id="Rectangle-2" d="M510.65 1193.171 L597.478 1224.773 702.273 936.852 615.445 905.249 Z" fill="#50acfc" fill-opacity="1" stroke="none"/>
  <path id="Path-2" d="M532.046 1201.159 L1153.353 1427.296 1184.956 1340.469 563.649 1114.331 Z" fill="#50acfc" fill-opacity="1" stroke="none"/>
  <path id="Path-3" d="M920.458 1170.028 L1007.286 1201.63 1101.03 944.07 1014.202 912.467 Z" fill="#be54d3" fill-opacity="1" stroke="none"/>
  <path id="Rectangle-3" d="M1218.574 1450.834 L1305.401 1482.437 1452.002 1079.654 1365.175 1048.051 Z" fill="#be54d3" fill-opacity="1" stroke="none"/>
  <defs>
   <linearGradient id="linear-gradient-1" gradientUnits="userSpaceOnUse" x1="761.052" y1="830.43" x2="1499.841" y2="1099.327">
    <stop offset="0.1" stop-color="#50acfc" stop-opacity="1"/>
    <stop offset="0.342" stop-color="#be54d3" stop-opacity="1"/>
   </linearGradient>
  </defs>
  <path id="Path-4" d="M792.606 894.61 L1434.416 1128.209 1466.019 1041.382 824.208 807.782 Z" fill-opacity="1" fill="url(#linear-gradient-1)" stroke="none"/>
  <path id="Path-5" d="M303.547 661.65 L390.375 693.253 522.096 331.353 435.268 299.75 Z" fill="#6272cd" fill-opacity="1" stroke="none"/>
 </g>
</svg>
