<?xml version="1.0" encoding="UTF-8"?>
<svg width="1752px" height="1752px" viewBox="0 0 1752 1752" xmlns="http://www.w3.org/2000/svg" xmlns:xlink="http://www.w3.org/1999/xlink" version="1.1">
 <!-- Generated by Pixelmator Pro 2.1.5 -->
 <g id="New-Group">
  <path id="Path" d="M1044.911 791.263 L1154.855 831.279 1256.544 551.889 1146.6 511.873 Z" fill="#50acfc" fill-opacity="1" stroke="none"/>
  <path id="Rectangle" d="M660.046 746.79 L769.99 786.807 892.671 449.743 782.727 409.726 Z" fill="#6271cd" fill-opacity="1" stroke="none"/>
  <defs>
   <linearGradient id="linear-gradient" gradientUnits="userSpaceOnUse" x1="359.765" y1="283.429" x2="1275.129" y2="616.595">
    <stop offset="0.606" stop-color="#6271cd" stop-opacity="1"/>
    <stop offset="0.825" stop-color="#50acfc" stop-opacity="1"/>
   </linearGradient>
  </defs>
  <path id="Rectangle-1" d="M398.399 364.216 L1193.605 653.647 1233.622 543.703 438.415 254.271 Z" fill-opacity="1" fill="url(#linear-gradient)" stroke="none"/>
  <path id="Path-1" d="M269.641 717.974 L733.136 886.673 773.153 776.729 309.657 608.031 Z" fill="#6271cd" fill-opacity="1" stroke="none"/>
  <path id="Rectangle-2" d="M494.27 1201.343 L604.214 1241.359 705.931 961.895 595.987 921.878 Z" fill="#50acfc" fill-opacity="1" stroke="none"/>
  <path id="Path-2" d="M506.405 1205.535 L1127.712 1431.672 1167.729 1321.728 546.422 1095.591 Z" fill="#50acfc" fill-opacity="1" stroke="none"/>
  <path id="Path-3" d="M909.47 1142.916 L1019.414 1182.933 1113.159 925.372 1003.215 885.356 Z" fill="#bf55d4" fill-opacity="1" stroke="none"/>
  <path id="Rectangle-3" d="M1202.193 1459.006 L1312.137 1499.022 1467.289 1072.747 1357.345 1032.731 Z" fill="#bf55d4" fill-opacity="1" stroke="none"/>
  <defs>
   <linearGradient id="linear-gradient-1" gradientUnits="userSpaceOnUse" x1="781.906" y1="837.699" x2="1510.96" y2="1103.053">
    <stop offset="0.1" stop-color="#50acfc" stop-opacity="1"/>
    <stop offset="0.342" stop-color="#bf55d4" stop-opacity="1"/>
   </linearGradient>
  </defs>
  <path id="Path-4" d="M808.312 914.035 L1441.664 1144.556 1481.681 1034.612 848.328 804.091 Z" fill-opacity="1" fill="url(#linear-gradient-1)" stroke="none"/>
  <path id="Path-5" d="M295.717 646.33 L405.661 686.346 537.382 324.446 427.438 284.43 Z" fill="#6271cd" fill-opacity="1" stroke="none"/>
 </g>
</svg>
