<?xml version="1.0" encoding="UTF-8"?>
<svg width="1752px" height="1752px" viewBox="0 0 1752 1752" xmlns="http://www.w3.org/2000/svg" xmlns:xlink="http://www.w3.org/1999/xlink" version="1.1">
 <!-- Generated by Pixelmator Pro 2.1.5 -->
 <g id="New-Group">
  <path id="Path" d="M1039.539 755.318 L1169.216 802.517 1263.84 542.539 1134.163 495.34 Z" fill="#50acfc" fill-opacity="1" stroke="none"/>
  <path id="Rectangle" d="M654.069 731.973 L783.747 779.172 906.428 442.108 776.751 394.909 Z" fill="#6271cd" fill-opacity="1" stroke="none"/>
  <defs>
   <linearGradient id="linear-gradient" gradientUnits="userSpaceOnUse" x1="350.455" y1="278.77" x2="1265.819" y2="611.936">
    <stop offset="0.606" stop-color="#6271cd" stop-opacity="1"/>
    <stop offset="0.825" stop-color="#50acfc" stop-opacity="1"/>
   </linearGradient>
  </defs>
  <path id="Rectangle-1" d="M385.24 370.132 L1180.446 659.564 1227.645 529.886 432.438 240.454 Z" fill-opacity="1" fill="url(#linear-gradient)" stroke="none"/>
  <path id="Path-1" d="M256.482 723.891 L739.654 899.751 786.853 770.074 303.681 594.213 Z" fill="#6271cd" fill-opacity="1" stroke="none"/>
  <path id="Rectangle-2" d="M482.167 1207.28 L611.845 1254.479 706.604 994.129 576.927 946.931 Z" fill="#50acfc" fill-opacity="1" stroke="none"/>
  <path id="Path-2" d="M482.255 1206.387 L1096.101 1429.808 1143.3 1300.131 529.454 1076.709 Z" fill="#50acfc" fill-opacity="1" stroke="none"/>
  <path id="Path-3" d="M910.334 1110.305 L1040.011 1157.504 1133.756 899.944 1004.078 852.745 Z" fill="#bf55d4" fill-opacity="1" stroke="none"/>
  <path id="Rectangle-3" d="M1189.493 1463.661 L1319.171 1510.86 1481.046 1066.112 1351.368 1018.914 Z" fill="#bf55d4" fill-opacity="1" stroke="none"/>
  <defs>
   <linearGradient id="linear-gradient-1" gradientUnits="userSpaceOnUse" x1="813.558" y1="847.949" x2="1519.832" y2="1105.012">
    <stop offset="0.1" stop-color="#50acfc" stop-opacity="1"/>
    <stop offset="0.342" stop-color="#c054d4" stop-opacity="1"/>
   </linearGradient>
  </defs>
  <path id="Path-4" d="M834.62 934.316 L1448.182 1157.634 1495.381 1027.957 881.818 804.638 Z" fill-opacity="1" fill="url(#linear-gradient-1)" stroke="none"/>
  <path id="Path-5" d="M289.741 632.513 L419.418 679.712 551.139 317.812 421.462 270.613 Z" fill="#6271cd" fill-opacity="1" stroke="none"/>
 </g>
</svg>
